<mxfile host="app.diagrams.net" modified="2022-06-01T16:44:33.172Z" agent="5.0 (Macintosh; Intel Mac OS X 10_15_7) AppleWebKit/537.36 (KHTML, like Gecko) Chrome/101.0.4951.64 Safari/537.36" etag="iBqumKgnlwUMzxlKfENw" version="18.2.0" type="github">
  <diagram id="zVCf7z2-2lD_RfVQa9jk" name="Page-1">
    <mxGraphModel dx="1130" dy="703" grid="1" gridSize="10" guides="1" tooltips="1" connect="1" arrows="1" fold="1" page="1" pageScale="1" pageWidth="827" pageHeight="1169" math="0" shadow="0">
      <root>
        <mxCell id="0" />
        <mxCell id="1" parent="0" />
        <mxCell id="iPwPXOduqcn6cmdAG-xF-22" value="" style="rounded=0;whiteSpace=wrap;html=1;dashed=1;" parent="1" vertex="1">
          <mxGeometry x="614.5" y="190" width="420" height="90" as="geometry" />
        </mxCell>
        <mxCell id="iPwPXOduqcn6cmdAG-xF-16" style="edgeStyle=orthogonalEdgeStyle;rounded=0;orthogonalLoop=1;jettySize=auto;html=1;exitX=1;exitY=0.5;exitDx=0;exitDy=0;" parent="1" source="iPwPXOduqcn6cmdAG-xF-1" target="iPwPXOduqcn6cmdAG-xF-10" edge="1">
          <mxGeometry relative="1" as="geometry" />
        </mxCell>
        <mxCell id="iPwPXOduqcn6cmdAG-xF-1" value="加载" style="rounded=0;whiteSpace=wrap;html=1;fillColor=#d5e8d4;strokeColor=#82b366;" parent="1" vertex="1">
          <mxGeometry x="494.5" y="210" width="100" height="50" as="geometry" />
        </mxCell>
        <mxCell id="iPwPXOduqcn6cmdAG-xF-17" style="edgeStyle=orthogonalEdgeStyle;rounded=0;orthogonalLoop=1;jettySize=auto;html=1;exitX=1;exitY=0.5;exitDx=0;exitDy=0;entryX=0;entryY=0.5;entryDx=0;entryDy=0;" parent="1" source="iPwPXOduqcn6cmdAG-xF-10" target="iPwPXOduqcn6cmdAG-xF-11" edge="1">
          <mxGeometry relative="1" as="geometry" />
        </mxCell>
        <mxCell id="iPwPXOduqcn6cmdAG-xF-10" value="验证" style="rounded=0;whiteSpace=wrap;html=1;fillColor=#dae8fc;strokeColor=#6c8ebf;" parent="1" vertex="1">
          <mxGeometry x="634.5" y="210" width="100" height="50" as="geometry" />
        </mxCell>
        <mxCell id="iPwPXOduqcn6cmdAG-xF-18" style="edgeStyle=orthogonalEdgeStyle;rounded=0;orthogonalLoop=1;jettySize=auto;html=1;exitX=1;exitY=0.5;exitDx=0;exitDy=0;" parent="1" source="iPwPXOduqcn6cmdAG-xF-11" target="iPwPXOduqcn6cmdAG-xF-12" edge="1">
          <mxGeometry relative="1" as="geometry" />
        </mxCell>
        <mxCell id="iPwPXOduqcn6cmdAG-xF-11" value="准备" style="rounded=0;whiteSpace=wrap;html=1;fillColor=#dae8fc;strokeColor=#6c8ebf;" parent="1" vertex="1">
          <mxGeometry x="774.5" y="210" width="100" height="50" as="geometry" />
        </mxCell>
        <mxCell id="iPwPXOduqcn6cmdAG-xF-19" style="edgeStyle=orthogonalEdgeStyle;rounded=0;orthogonalLoop=1;jettySize=auto;html=1;exitX=0.5;exitY=1;exitDx=0;exitDy=0;" parent="1" source="iPwPXOduqcn6cmdAG-xF-12" target="iPwPXOduqcn6cmdAG-xF-13" edge="1">
          <mxGeometry relative="1" as="geometry" />
        </mxCell>
        <mxCell id="iPwPXOduqcn6cmdAG-xF-12" value="解析" style="rounded=0;whiteSpace=wrap;html=1;fillColor=#dae8fc;strokeColor=#6c8ebf;" parent="1" vertex="1">
          <mxGeometry x="914.5" y="210" width="100" height="50" as="geometry" />
        </mxCell>
        <mxCell id="iPwPXOduqcn6cmdAG-xF-20" style="edgeStyle=orthogonalEdgeStyle;rounded=0;orthogonalLoop=1;jettySize=auto;html=1;exitX=0;exitY=0.5;exitDx=0;exitDy=0;" parent="1" source="iPwPXOduqcn6cmdAG-xF-13" target="iPwPXOduqcn6cmdAG-xF-14" edge="1">
          <mxGeometry relative="1" as="geometry" />
        </mxCell>
        <mxCell id="iPwPXOduqcn6cmdAG-xF-13" value="初始化" style="rounded=0;whiteSpace=wrap;html=1;fillColor=#e1d5e7;strokeColor=#9673a6;" parent="1" vertex="1">
          <mxGeometry x="914.5" y="340" width="100" height="50" as="geometry" />
        </mxCell>
        <mxCell id="iPwPXOduqcn6cmdAG-xF-21" style="edgeStyle=orthogonalEdgeStyle;rounded=0;orthogonalLoop=1;jettySize=auto;html=1;exitX=0;exitY=0.5;exitDx=0;exitDy=0;" parent="1" source="iPwPXOduqcn6cmdAG-xF-14" target="iPwPXOduqcn6cmdAG-xF-15" edge="1">
          <mxGeometry relative="1" as="geometry" />
        </mxCell>
        <mxCell id="iPwPXOduqcn6cmdAG-xF-14" value="使用&lt;span style=&quot;color: rgba(0 , 0 , 0 , 0) ; font-family: monospace ; font-size: 0px&quot;&gt;%3CmxGraphModel%3E%3Croot%3E%3CmxCell%20id%3D%220%22%2F%3E%3CmxCell%20id%3D%221%22%20parent%3D%220%22%2F%3E%3CmxCell%20id%3D%222%22%20value%3D%22%E5%8A%A0%E8%BD%BD%22%20style%3D%22rounded%3D0%3BwhiteSpace%3Dwrap%3Bhtml%3D1%3B%22%20vertex%3D%221%22%20parent%3D%221%22%3E%3CmxGeometry%20x%3D%22100%22%20y%3D%22140%22%20width%3D%22100%22%20height%3D%2250%22%20as%3D%22geometry%22%2F%3E%3C%2FmxCell%3E%3C%2Froot%3E%3C%2FmxGraphModel%3E&lt;/span&gt;" style="rounded=0;whiteSpace=wrap;html=1;fillColor=#ffe6cc;strokeColor=#d79b00;" parent="1" vertex="1">
          <mxGeometry x="774.5" y="340" width="100" height="50" as="geometry" />
        </mxCell>
        <mxCell id="iPwPXOduqcn6cmdAG-xF-15" value="卸载" style="rounded=0;whiteSpace=wrap;html=1;fillColor=#f8cecc;strokeColor=#b85450;" parent="1" vertex="1">
          <mxGeometry x="634.5" y="340" width="100" height="50" as="geometry" />
        </mxCell>
        <mxCell id="iPwPXOduqcn6cmdAG-xF-23" value="连接" style="text;html=1;strokeColor=none;fillColor=none;align=center;verticalAlign=middle;whiteSpace=wrap;rounded=0;dashed=1;fontStyle=1;fontSize=14;" parent="1" vertex="1">
          <mxGeometry x="744.5" y="160" width="60" height="30" as="geometry" />
        </mxCell>
        <mxCell id="iPwPXOduqcn6cmdAG-xF-33" style="edgeStyle=orthogonalEdgeStyle;rounded=0;orthogonalLoop=1;jettySize=auto;html=1;exitX=0.5;exitY=0;exitDx=0;exitDy=0;entryX=0.5;entryY=1;entryDx=0;entryDy=0;fontSize=14;" parent="1" source="iPwPXOduqcn6cmdAG-xF-27" target="iPwPXOduqcn6cmdAG-xF-30" edge="1">
          <mxGeometry relative="1" as="geometry" />
        </mxCell>
        <mxCell id="iPwPXOduqcn6cmdAG-xF-43" style="edgeStyle=orthogonalEdgeStyle;rounded=0;orthogonalLoop=1;jettySize=auto;html=1;exitX=0;exitY=0.5;exitDx=0;exitDy=0;fontSize=14;" parent="1" source="iPwPXOduqcn6cmdAG-xF-27" target="iPwPXOduqcn6cmdAG-xF-42" edge="1">
          <mxGeometry relative="1" as="geometry" />
        </mxCell>
        <mxCell id="iPwPXOduqcn6cmdAG-xF-64" style="edgeStyle=orthogonalEdgeStyle;rounded=0;orthogonalLoop=1;jettySize=auto;html=1;exitX=1;exitY=0.5;exitDx=0;exitDy=0;entryX=0;entryY=0.5;entryDx=0;entryDy=0;fontSize=14;" parent="1" source="iPwPXOduqcn6cmdAG-xF-27" target="iPwPXOduqcn6cmdAG-xF-58" edge="1">
          <mxGeometry relative="1" as="geometry" />
        </mxCell>
        <mxCell id="iPwPXOduqcn6cmdAG-xF-27" value="User Classloader&lt;br&gt;自定义类加载器" style="rounded=0;whiteSpace=wrap;html=1;fontSize=14;fillColor=#fff2cc;strokeColor=#d6b656;" parent="1" vertex="1">
          <mxGeometry x="499.5" y="1000" width="180" height="60" as="geometry" />
        </mxCell>
        <mxCell id="iPwPXOduqcn6cmdAG-xF-34" style="edgeStyle=orthogonalEdgeStyle;rounded=0;orthogonalLoop=1;jettySize=auto;html=1;exitX=0.5;exitY=0;exitDx=0;exitDy=0;entryX=0.5;entryY=1;entryDx=0;entryDy=0;fontSize=14;" parent="1" source="iPwPXOduqcn6cmdAG-xF-30" target="iPwPXOduqcn6cmdAG-xF-31" edge="1">
          <mxGeometry relative="1" as="geometry" />
        </mxCell>
        <mxCell id="iPwPXOduqcn6cmdAG-xF-46" style="edgeStyle=orthogonalEdgeStyle;rounded=0;orthogonalLoop=1;jettySize=auto;html=1;exitX=0;exitY=0.5;exitDx=0;exitDy=0;fontSize=14;" parent="1" source="iPwPXOduqcn6cmdAG-xF-30" target="iPwPXOduqcn6cmdAG-xF-45" edge="1">
          <mxGeometry relative="1" as="geometry" />
        </mxCell>
        <mxCell id="iPwPXOduqcn6cmdAG-xF-57" style="edgeStyle=orthogonalEdgeStyle;rounded=0;orthogonalLoop=1;jettySize=auto;html=1;exitX=1;exitY=0.5;exitDx=0;exitDy=0;entryX=0;entryY=0.5;entryDx=0;entryDy=0;fontSize=14;" parent="1" source="iPwPXOduqcn6cmdAG-xF-30" target="iPwPXOduqcn6cmdAG-xF-55" edge="1">
          <mxGeometry relative="1" as="geometry" />
        </mxCell>
        <mxCell id="iPwPXOduqcn6cmdAG-xF-30" value="App Classloader&lt;br&gt;应用程序类加载器" style="rounded=0;whiteSpace=wrap;html=1;fontSize=14;fillColor=#dae8fc;strokeColor=#6c8ebf;" parent="1" vertex="1">
          <mxGeometry x="499.5" y="900" width="180" height="60" as="geometry" />
        </mxCell>
        <mxCell id="iPwPXOduqcn6cmdAG-xF-35" style="edgeStyle=orthogonalEdgeStyle;rounded=0;orthogonalLoop=1;jettySize=auto;html=1;exitX=0.5;exitY=0;exitDx=0;exitDy=0;fontSize=14;" parent="1" source="iPwPXOduqcn6cmdAG-xF-31" target="iPwPXOduqcn6cmdAG-xF-32" edge="1">
          <mxGeometry relative="1" as="geometry" />
        </mxCell>
        <mxCell id="iPwPXOduqcn6cmdAG-xF-48" style="edgeStyle=orthogonalEdgeStyle;rounded=0;orthogonalLoop=1;jettySize=auto;html=1;exitX=0;exitY=0.5;exitDx=0;exitDy=0;entryX=0;entryY=0;entryDx=110;entryDy=30;entryPerimeter=0;fontSize=14;" parent="1" source="iPwPXOduqcn6cmdAG-xF-31" target="iPwPXOduqcn6cmdAG-xF-47" edge="1">
          <mxGeometry relative="1" as="geometry" />
        </mxCell>
        <mxCell id="iPwPXOduqcn6cmdAG-xF-56" style="edgeStyle=orthogonalEdgeStyle;rounded=0;orthogonalLoop=1;jettySize=auto;html=1;exitX=1;exitY=0.5;exitDx=0;exitDy=0;entryX=0;entryY=0.5;entryDx=0;entryDy=0;fontSize=14;" parent="1" source="iPwPXOduqcn6cmdAG-xF-31" target="iPwPXOduqcn6cmdAG-xF-54" edge="1">
          <mxGeometry relative="1" as="geometry" />
        </mxCell>
        <mxCell id="iPwPXOduqcn6cmdAG-xF-31" value="Ext Classloader&lt;br&gt;扩展类类加载器" style="rounded=0;whiteSpace=wrap;html=1;fontSize=14;fillColor=#e1d5e7;strokeColor=#9673a6;" parent="1" vertex="1">
          <mxGeometry x="499.5" y="800" width="180" height="60" as="geometry" />
        </mxCell>
        <mxCell id="iPwPXOduqcn6cmdAG-xF-50" style="edgeStyle=orthogonalEdgeStyle;rounded=0;orthogonalLoop=1;jettySize=auto;html=1;exitX=0;exitY=0.5;exitDx=0;exitDy=0;entryX=0;entryY=0;entryDx=110;entryDy=30;entryPerimeter=0;fontSize=14;" parent="1" source="iPwPXOduqcn6cmdAG-xF-32" target="iPwPXOduqcn6cmdAG-xF-49" edge="1">
          <mxGeometry relative="1" as="geometry" />
        </mxCell>
        <mxCell id="iPwPXOduqcn6cmdAG-xF-53" style="edgeStyle=orthogonalEdgeStyle;rounded=0;orthogonalLoop=1;jettySize=auto;html=1;exitX=1;exitY=0.5;exitDx=0;exitDy=0;entryX=0;entryY=0.5;entryDx=0;entryDy=0;fontSize=14;" parent="1" source="iPwPXOduqcn6cmdAG-xF-32" target="iPwPXOduqcn6cmdAG-xF-52" edge="1">
          <mxGeometry relative="1" as="geometry" />
        </mxCell>
        <mxCell id="iPwPXOduqcn6cmdAG-xF-32" value="Bootstrap Classloader&lt;br&gt;启动类加载器" style="rounded=0;whiteSpace=wrap;html=1;fontSize=14;fillColor=#f8cecc;strokeColor=#b85450;" parent="1" vertex="1">
          <mxGeometry x="499.5" y="700" width="180" height="60" as="geometry" />
        </mxCell>
        <mxCell id="iPwPXOduqcn6cmdAG-xF-41" style="edgeStyle=orthogonalEdgeStyle;rounded=0;orthogonalLoop=1;jettySize=auto;html=1;exitX=0.5;exitY=0;exitDx=0;exitDy=0;exitPerimeter=0;fontSize=14;" parent="1" source="iPwPXOduqcn6cmdAG-xF-40" target="iPwPXOduqcn6cmdAG-xF-27" edge="1">
          <mxGeometry relative="1" as="geometry" />
        </mxCell>
        <mxCell id="iPwPXOduqcn6cmdAG-xF-40" value="xxx.class" style="shape=note;whiteSpace=wrap;html=1;backgroundOutline=1;darkOpacity=0.05;fontSize=14;fillColor=#fff2cc;strokeColor=#d6b656;" parent="1" vertex="1">
          <mxGeometry x="549.5" y="1120" width="80" height="100" as="geometry" />
        </mxCell>
        <mxCell id="iPwPXOduqcn6cmdAG-xF-63" style="edgeStyle=orthogonalEdgeStyle;rounded=0;orthogonalLoop=1;jettySize=auto;html=1;exitX=0;exitY=0;exitDx=60;exitDy=50;exitPerimeter=0;entryX=0;entryY=0.5;entryDx=0;entryDy=0;entryPerimeter=0;fontSize=14;" parent="1" source="iPwPXOduqcn6cmdAG-xF-42" target="iPwPXOduqcn6cmdAG-xF-40" edge="1">
          <mxGeometry relative="1" as="geometry" />
        </mxCell>
        <mxCell id="iPwPXOduqcn6cmdAG-xF-42" value="Cache" style="shape=cube;whiteSpace=wrap;html=1;boundedLbl=1;backgroundOutline=1;darkOpacity=0.05;darkOpacity2=0.1;fontSize=14;size=10;fillColor=#f5f5f5;fontColor=#333333;strokeColor=#666666;" parent="1" vertex="1">
          <mxGeometry x="339.5" y="1005" width="110" height="50" as="geometry" />
        </mxCell>
        <mxCell id="iPwPXOduqcn6cmdAG-xF-45" value="Cache" style="shape=cube;whiteSpace=wrap;html=1;boundedLbl=1;backgroundOutline=1;darkOpacity=0.05;darkOpacity2=0.1;fontSize=14;size=10;fillColor=#f5f5f5;fontColor=#333333;strokeColor=#666666;" parent="1" vertex="1">
          <mxGeometry x="339.5" y="905" width="110" height="50" as="geometry" />
        </mxCell>
        <mxCell id="iPwPXOduqcn6cmdAG-xF-47" value="Cache" style="shape=cube;whiteSpace=wrap;html=1;boundedLbl=1;backgroundOutline=1;darkOpacity=0.05;darkOpacity2=0.1;fontSize=14;size=10;fillColor=#f5f5f5;fontColor=#333333;strokeColor=#666666;" parent="1" vertex="1">
          <mxGeometry x="339.5" y="800" width="110" height="50" as="geometry" />
        </mxCell>
        <mxCell id="iPwPXOduqcn6cmdAG-xF-49" value="Cache" style="shape=cube;whiteSpace=wrap;html=1;boundedLbl=1;backgroundOutline=1;darkOpacity=0.05;darkOpacity2=0.1;fontSize=14;size=10;fillColor=#f5f5f5;fontColor=#333333;strokeColor=#666666;" parent="1" vertex="1">
          <mxGeometry x="339.5" y="700" width="110" height="50" as="geometry" />
        </mxCell>
        <mxCell id="iPwPXOduqcn6cmdAG-xF-52" value="lib" style="shape=process;whiteSpace=wrap;html=1;backgroundOutline=1;fontSize=14;fillColor=#f5f5f5;fontColor=#333333;strokeColor=#666666;" parent="1" vertex="1">
          <mxGeometry x="729.5" y="700" width="120" height="60" as="geometry" />
        </mxCell>
        <mxCell id="iPwPXOduqcn6cmdAG-xF-54" value="lib/ext" style="shape=process;whiteSpace=wrap;html=1;backgroundOutline=1;fontSize=14;fillColor=#f5f5f5;fontColor=#333333;strokeColor=#666666;" parent="1" vertex="1">
          <mxGeometry x="729.5" y="800" width="120" height="60" as="geometry" />
        </mxCell>
        <mxCell id="iPwPXOduqcn6cmdAG-xF-55" value="classpath" style="shape=process;whiteSpace=wrap;html=1;backgroundOutline=1;fontSize=14;fillColor=#f5f5f5;fontColor=#333333;strokeColor=#666666;" parent="1" vertex="1">
          <mxGeometry x="729.5" y="900" width="120" height="60" as="geometry" />
        </mxCell>
        <mxCell id="iPwPXOduqcn6cmdAG-xF-58" value="customer" style="shape=process;whiteSpace=wrap;html=1;backgroundOutline=1;fontSize=14;fillColor=#f5f5f5;fontColor=#333333;strokeColor=#666666;" parent="1" vertex="1">
          <mxGeometry x="729.5" y="1000" width="120" height="60" as="geometry" />
        </mxCell>
        <mxCell id="iPwPXOduqcn6cmdAG-xF-59" value="" style="shape=flexArrow;endArrow=classic;html=1;rounded=0;fontSize=14;fillColor=#dae8fc;strokeColor=#6c8ebf;" parent="1" edge="1">
          <mxGeometry width="50" height="50" relative="1" as="geometry">
            <mxPoint x="279.5" y="1070" as="sourcePoint" />
            <mxPoint x="279.5" y="700" as="targetPoint" />
          </mxGeometry>
        </mxCell>
        <mxCell id="iPwPXOduqcn6cmdAG-xF-60" value="向上委托" style="edgeLabel;html=1;align=center;verticalAlign=middle;resizable=0;points=[];fontSize=14;" parent="iPwPXOduqcn6cmdAG-xF-59" vertex="1" connectable="0">
          <mxGeometry x="0.4031" y="4" relative="1" as="geometry">
            <mxPoint x="4" y="44" as="offset" />
          </mxGeometry>
        </mxCell>
        <mxCell id="iPwPXOduqcn6cmdAG-xF-61" value="" style="shape=flexArrow;endArrow=classic;html=1;rounded=0;fontSize=14;fillColor=#f8cecc;strokeColor=#b85450;" parent="1" edge="1">
          <mxGeometry width="50" height="50" relative="1" as="geometry">
            <mxPoint x="919.5" y="700" as="sourcePoint" />
            <mxPoint x="919.5" y="1070" as="targetPoint" />
          </mxGeometry>
        </mxCell>
        <mxCell id="iPwPXOduqcn6cmdAG-xF-62" value="向下查找" style="edgeLabel;html=1;align=center;verticalAlign=middle;resizable=0;points=[];fontSize=14;" parent="iPwPXOduqcn6cmdAG-xF-61" vertex="1" connectable="0">
          <mxGeometry x="0.4031" y="4" relative="1" as="geometry">
            <mxPoint x="-4" y="-100" as="offset" />
          </mxGeometry>
        </mxCell>
        <mxCell id="s2DW5glBOxeusL4yt4jL-1" value="&lt;span style=&quot;font-size: 14px; text-align: left;&quot;&gt;将 .class 文件从磁盘读取到内存&lt;br&gt;通过类的全类名（包名+类名）加载到内存（方法区）&lt;/span&gt;" style="whiteSpace=wrap;html=1;shape=partialRectangle;top=0;left=0;bottom=1;right=0;points=[[0,1],[1,1]];fillColor=#fff2cc;align=center;verticalAlign=bottom;routingCenterY=0.5;snapToPoint=1;recursiveResize=0;autosize=1;treeFolding=1;treeMoving=1;newEdgeStyle={&quot;edgeStyle&quot;:&quot;entityRelationEdgeStyle&quot;,&quot;startArrow&quot;:&quot;none&quot;,&quot;endArrow&quot;:&quot;none&quot;,&quot;segment&quot;:10,&quot;curved&quot;:1};strokeColor=#d6b656;" vertex="1" parent="1">
          <mxGeometry x="134.5" y="130" width="360" height="40" as="geometry" />
        </mxCell>
        <mxCell id="s2DW5glBOxeusL4yt4jL-2" value="" style="edgeStyle=entityRelationEdgeStyle;startArrow=none;endArrow=none;segment=10;curved=1;rounded=0;fontColor=#000000;exitX=0.25;exitY=0;exitDx=0;exitDy=0;" edge="1" target="s2DW5glBOxeusL4yt4jL-1" parent="1" source="iPwPXOduqcn6cmdAG-xF-1">
          <mxGeometry relative="1" as="geometry">
            <mxPoint x="314.5" y="160" as="sourcePoint" />
          </mxGeometry>
        </mxCell>
        <mxCell id="s2DW5glBOxeusL4yt4jL-3" value="&lt;span style=&quot;font-size: 14px; text-align: left;&quot;&gt;验证字节码文件的正确性&lt;/span&gt;" style="whiteSpace=wrap;html=1;shape=partialRectangle;top=0;left=0;bottom=1;right=0;points=[[0,1],[1,1]];fillColor=#fff2cc;align=center;verticalAlign=bottom;routingCenterY=0.5;snapToPoint=1;recursiveResize=0;autosize=1;treeFolding=1;treeMoving=1;newEdgeStyle={&quot;edgeStyle&quot;:&quot;entityRelationEdgeStyle&quot;,&quot;startArrow&quot;:&quot;none&quot;,&quot;endArrow&quot;:&quot;none&quot;,&quot;segment&quot;:10,&quot;curved&quot;:1};strokeColor=#d6b656;" vertex="1" parent="1">
          <mxGeometry x="524.5" y="110" width="190" height="20" as="geometry" />
        </mxCell>
        <mxCell id="s2DW5glBOxeusL4yt4jL-4" value="" style="edgeStyle=entityRelationEdgeStyle;startArrow=none;endArrow=none;segment=10;curved=1;rounded=0;fontColor=#000000;exitX=0.75;exitY=0;exitDx=0;exitDy=0;" edge="1" target="s2DW5glBOxeusL4yt4jL-3" parent="1" source="iPwPXOduqcn6cmdAG-xF-10">
          <mxGeometry relative="1" as="geometry">
            <mxPoint x="594.5" y="130" as="sourcePoint" />
          </mxGeometry>
        </mxCell>
        <mxCell id="s2DW5glBOxeusL4yt4jL-5" value="&lt;span style=&quot;font-size: 14px; text-align: left;&quot;&gt;给类的静态变量分配内存（方法区）&lt;br&gt;并赋予默认值，如：int a = 0，bool b = false&lt;/span&gt;" style="whiteSpace=wrap;html=1;shape=partialRectangle;top=0;left=0;bottom=1;right=0;points=[[0,1],[1,1]];fillColor=#fff2cc;align=center;verticalAlign=bottom;routingCenterY=0.5;snapToPoint=1;recursiveResize=0;autosize=1;treeFolding=1;treeMoving=1;newEdgeStyle={&quot;edgeStyle&quot;:&quot;entityRelationEdgeStyle&quot;,&quot;startArrow&quot;:&quot;none&quot;,&quot;endArrow&quot;:&quot;none&quot;,&quot;segment&quot;:10,&quot;curved&quot;:1};strokeColor=#d6b656;" vertex="1" parent="1">
          <mxGeometry x="844.5" y="100" width="310" height="40" as="geometry" />
        </mxCell>
        <mxCell id="s2DW5glBOxeusL4yt4jL-6" value="" style="edgeStyle=entityRelationEdgeStyle;startArrow=none;endArrow=none;segment=10;curved=1;rounded=0;fontColor=#000000;exitX=0.25;exitY=0;exitDx=0;exitDy=0;" edge="1" target="s2DW5glBOxeusL4yt4jL-5" parent="1" source="iPwPXOduqcn6cmdAG-xF-11">
          <mxGeometry relative="1" as="geometry">
            <mxPoint x="844.5" y="130" as="sourcePoint" />
          </mxGeometry>
        </mxCell>
        <mxCell id="s2DW5glBOxeusL4yt4jL-7" value="&lt;span style=&quot;font-size: 14px; text-align: left;&quot;&gt;将符号引用替换为直接引用&lt;br&gt;会把一些静态方法的符号引用替换为指向内存地址，即静态链接&lt;br&gt;&lt;/span&gt;" style="whiteSpace=wrap;html=1;shape=partialRectangle;top=0;left=0;bottom=1;right=0;points=[[0,1],[1,1]];fillColor=#fff2cc;align=center;verticalAlign=bottom;routingCenterY=0.5;snapToPoint=1;recursiveResize=0;autosize=1;treeFolding=1;treeMoving=1;newEdgeStyle={&quot;edgeStyle&quot;:&quot;entityRelationEdgeStyle&quot;,&quot;startArrow&quot;:&quot;none&quot;,&quot;endArrow&quot;:&quot;none&quot;,&quot;segment&quot;:10,&quot;curved&quot;:1};strokeColor=#d6b656;" vertex="1" parent="1">
          <mxGeometry x="1024.5" y="155" width="420" height="40" as="geometry" />
        </mxCell>
        <mxCell id="s2DW5glBOxeusL4yt4jL-8" value="" style="edgeStyle=entityRelationEdgeStyle;startArrow=none;endArrow=none;segment=10;curved=1;rounded=0;fontColor=#000000;exitX=0.75;exitY=0;exitDx=0;exitDy=0;" edge="1" target="s2DW5glBOxeusL4yt4jL-7" parent="1" source="iPwPXOduqcn6cmdAG-xF-12">
          <mxGeometry relative="1" as="geometry">
            <mxPoint x="1114.5" y="210" as="sourcePoint" />
          </mxGeometry>
        </mxCell>
        <mxCell id="s2DW5glBOxeusL4yt4jL-9" value="&lt;span style=&quot;font-size: 14px; text-align: left;&quot;&gt;为类的静态变量赋予正确的初始值&lt;/span&gt;" style="whiteSpace=wrap;html=1;shape=partialRectangle;top=0;left=0;bottom=1;right=0;points=[[0,1],[1,1]];fillColor=#fff2cc;align=center;verticalAlign=bottom;routingCenterY=0.5;snapToPoint=1;recursiveResize=0;autosize=1;treeFolding=1;treeMoving=1;newEdgeStyle={&quot;edgeStyle&quot;:&quot;entityRelationEdgeStyle&quot;,&quot;startArrow&quot;:&quot;none&quot;,&quot;endArrow&quot;:&quot;none&quot;,&quot;segment&quot;:10,&quot;curved&quot;:1};strokeColor=#d6b656;" vertex="1" parent="1">
          <mxGeometry x="1074.5" y="300" width="240" height="20" as="geometry" />
        </mxCell>
        <mxCell id="s2DW5glBOxeusL4yt4jL-10" value="" style="edgeStyle=entityRelationEdgeStyle;startArrow=none;endArrow=none;segment=10;curved=1;rounded=0;fontColor=#000000;exitX=1;exitY=0.5;exitDx=0;exitDy=0;" edge="1" target="s2DW5glBOxeusL4yt4jL-9" parent="1" source="iPwPXOduqcn6cmdAG-xF-13">
          <mxGeometry relative="1" as="geometry">
            <mxPoint x="1064.5" y="360" as="sourcePoint" />
          </mxGeometry>
        </mxCell>
        <mxCell id="s2DW5glBOxeusL4yt4jL-11" value="&lt;span style=&quot;font-size: 14px; text-align: left;&quot;&gt;创建对象...&lt;/span&gt;" style="whiteSpace=wrap;html=1;shape=partialRectangle;top=0;left=0;bottom=1;right=0;points=[[0,1],[1,1]];fillColor=#fff2cc;align=center;verticalAlign=bottom;routingCenterY=0.5;snapToPoint=1;recursiveResize=0;autosize=1;treeFolding=1;treeMoving=1;newEdgeStyle={&quot;edgeStyle&quot;:&quot;entityRelationEdgeStyle&quot;,&quot;startArrow&quot;:&quot;none&quot;,&quot;endArrow&quot;:&quot;none&quot;,&quot;segment&quot;:10,&quot;curved&quot;:1};strokeColor=#d6b656;" vertex="1" parent="1">
          <mxGeometry x="854.5" y="420" width="100" height="20" as="geometry" />
        </mxCell>
        <mxCell id="s2DW5glBOxeusL4yt4jL-12" value="" style="edgeStyle=entityRelationEdgeStyle;startArrow=none;endArrow=none;segment=10;curved=1;rounded=0;fontColor=#000000;exitX=0.25;exitY=1;exitDx=0;exitDy=0;" edge="1" target="s2DW5glBOxeusL4yt4jL-11" parent="1" source="iPwPXOduqcn6cmdAG-xF-14">
          <mxGeometry relative="1" as="geometry">
            <mxPoint x="744.5" y="460" as="sourcePoint" />
          </mxGeometry>
        </mxCell>
        <mxCell id="s2DW5glBOxeusL4yt4jL-13" value="&lt;span style=&quot;font-size: 14px; text-align: left;&quot;&gt;对象没有任何引用；程序正常执行结束&lt;br&gt;&lt;/span&gt;&lt;span style=&quot;font-size: 14px; text-align: left;&quot;&gt;System.exit(0)&lt;/span&gt;&lt;span style=&quot;font-size: 14px; text-align: left;&quot;&gt;&lt;br&gt;&lt;/span&gt;" style="whiteSpace=wrap;html=1;shape=partialRectangle;top=0;left=0;bottom=1;right=0;points=[[0,1],[1,1]];fillColor=#fff2cc;align=center;verticalAlign=bottom;routingCenterY=0.5;snapToPoint=1;recursiveResize=0;autosize=1;treeFolding=1;treeMoving=1;newEdgeStyle={&quot;edgeStyle&quot;:&quot;entityRelationEdgeStyle&quot;,&quot;startArrow&quot;:&quot;none&quot;,&quot;endArrow&quot;:&quot;none&quot;,&quot;segment&quot;:10,&quot;curved&quot;:1};strokeColor=#d6b656;" vertex="1" parent="1">
          <mxGeometry x="279.5" y="310" width="270" height="40" as="geometry" />
        </mxCell>
        <mxCell id="s2DW5glBOxeusL4yt4jL-14" value="" style="edgeStyle=entityRelationEdgeStyle;startArrow=none;endArrow=none;segment=10;curved=1;rounded=0;fontColor=#000000;exitX=0;exitY=0.5;exitDx=0;exitDy=0;" edge="1" target="s2DW5glBOxeusL4yt4jL-13" parent="1" source="iPwPXOduqcn6cmdAG-xF-15">
          <mxGeometry relative="1" as="geometry">
            <mxPoint x="244.5" y="370" as="sourcePoint" />
          </mxGeometry>
        </mxCell>
      </root>
    </mxGraphModel>
  </diagram>
</mxfile>
